<?xml version="1.0" standalone="no"?>
<!DOCTYPE svg PUBLIC "-//W3C//DTD SVG 20010904//EN"
 "http://www.w3.org/TR/2001/REC-SVG-20010904/DTD/svg10.dtd">
<svg version="1.0" xmlns="http://www.w3.org/2000/svg"
 width="1000.000000pt" height="989.000000pt" viewBox="0 0 1000.000000 989.000000"
 preserveAspectRatio="xMidYMid meet">

<g transform="translate(0.000000,989.000000) scale(0.100000,-0.100000)"
fill="#000000" stroke="none">
<path d="M4850 9627 c-20 -7 -56 -27 -80 -45 -25 -17 -418 -405 -874 -861
l-830 -831 -90 -15 c-412 -70 -780 -248 -1026 -495 -244 -244 -366 -525 -386
-890 l-6 -105 -628 -630 c-425 -426 -636 -645 -651 -675 -20 -37 -24 -60 -24
-135 0 -75 4 -97 24 -135 15 -30 201 -224 567 -590 l544 -545 -10 -35 c-19
-64 -13 -218 10 -295 28 -91 85 -188 153 -257 50 -52 54 -60 60 -117 17 -155
81 -402 143 -543 80 -182 176 -298 319 -383 299 -178 776 -340 1269 -430 77
-14 141 -26 143 -28 1 -1 292 -291 645 -643 431 -430 658 -649 688 -665 60
-32 203 -34 265 -5 26 13 263 242 700 678 515 513 666 658 685 658 38 0 385
73 560 118 322 83 658 214 833 326 105 67 192 195 257 378 17 45 32 71 50 81
58 35 131 122 173 206 41 83 42 86 44 198 l2 114 35 44 c123 150 166 369 106
544 l-19 56 549 550 c385 386 554 561 565 588 37 90 37 180 -1 265 -11 24
-248 269 -660 682 l-642 645 -6 95 c-39 550 -303 961 -776 1204 -206 105 -383
164 -625 206 l-120 21 -830 829 c-591 589 -843 835 -875 851 -55 28 -177 36
-230 16z m730 -871 c449 -450 602 -608 593 -617 -8 -8 -51 -3 -165 19 -149 30
-380 64 -523 77 l-71 7 24 71 c21 61 24 85 19 158 -5 100 -32 168 -92 237 -45
51 -64 45 -44 -15 8 -22 14 -83 14 -148 0 -104 -2 -114 -32 -175 -18 -36 -37
-78 -43 -94 -10 -28 -12 -29 -63 -22 -28 3 -64 6 -79 6 -18 0 -28 5 -28 15 0
8 -22 65 -50 125 -27 61 -56 133 -65 162 -20 69 -20 276 1 396 8 51 14 97 12
104 -2 6 -20 -9 -40 -33 -145 -178 -186 -449 -104 -692 13 -40 23 -73 23 -73
-1 -1 -56 -5 -122 -8 l-120 -7 -22 63 c-12 35 -29 83 -38 108 -21 55 -14 168
15 262 10 34 18 64 15 66 -9 9 -60 -36 -96 -86 -80 -113 -90 -234 -33 -412 4
-13 -18 -18 -129 -32 -167 -21 -409 -69 -544 -107 -88 -24 -104 -26 -115 -14
-9 12 101 127 624 650 556 556 638 634 654 625 11 -6 291 -283 624 -616z
m-633 -835 c-3 -44 -19 -120 -37 -173 -45 -140 -39 -152 26 -59 57 79 119 195
139 258 17 53 18 53 54 48 20 -2 96 -7 170 -10 265 -12 586 -60 844 -127 64
-17 117 -34 117 -37 0 -4 -24 -27 -53 -51 -56 -47 -92 -88 -84 -96 2 -2 35 3
73 12 46 10 112 15 196 15 454 -3 891 -174 1250 -488 186 -163 301 -356 359
-598 40 -168 26 -243 -54 -289 -125 -72 -860 -230 -1377 -295 -1190 -152
-2598 -127 -3706 64 -272 47 -466 87 -669 140 -304 78 -334 92 -350 157 -4 15
-2 76 5 135 34 299 119 468 348 685 203 192 441 313 752 382 322 71 538 50
790 -76 63 -31 116 -55 118 -53 2 1 -6 26 -18 53 -25 58 -105 139 -195 197
-33 22 -62 41 -64 42 -10 7 13 17 123 53 323 109 759 179 1165 188 l84 2 -6
-79z m3850 -2383 c321 -321 583 -587 583 -593 0 -6 -234 -244 -519 -529 -518
-518 -519 -519 -543 -503 -13 10 -48 35 -78 57 -91 65 -280 134 -280 102 0 -6
44 -68 98 -137 112 -144 153 -207 190 -297 23 -54 26 -78 27 -168 0 -95 -3
-110 -27 -156 -15 -28 -41 -63 -58 -78 -43 -36 -70 -36 -217 -5 -165 34 -274
21 -380 -47 -130 -83 -209 -209 -257 -409 -36 -148 -42 -162 -75 -168 -66 -14
-92 17 -154 179 -69 179 -117 249 -208 299 -50 28 -62 30 -154 30 -89 0 -106
-3 -151 -27 -48 -25 -104 -78 -138 -130 -8 -13 -31 -66 -50 -118 -40 -106 -55
-125 -110 -135 -37 -6 -40 -5 -85 46 -145 167 -188 193 -312 194 -76 0 -90 -3
-125 -26 -89 -59 -124 -158 -149 -425 -17 -186 -36 -288 -65 -344 -23 -45 -45
-60 -90 -60 -63 0 -101 68 -180 322 -86 278 -153 389 -268 445 -49 24 -69 28
-142 28 -75 0 -93 -4 -150 -32 -78 -37 -127 -82 -202 -183 -30 -42 -69 -88
-86 -102 -36 -30 -127 -53 -171 -43 -45 10 -94 71 -175 218 -117 215 -183 293
-296 346 -48 23 -68 26 -155 26 -84 0 -107 -4 -147 -23 -117 -58 -179 -150
-262 -392 -81 -236 -103 -265 -193 -258 -28 3 -63 12 -78 22 -42 28 -76 115
-97 250 -50 322 -79 415 -156 489 -110 106 -242 117 -492 40 -270 -83 -303
-86 -406 -39 -98 45 -168 134 -199 253 -20 77 -19 135 5 227 27 107 68 179
166 290 46 53 84 101 84 107 0 38 -260 -76 -310 -136 -7 -8 -20 -15 -29 -15
-9 0 -243 227 -520 504 -439 439 -502 506 -493 522 6 11 267 275 581 588 l570
570 135 -42 c868 -272 2099 -419 3341 -398 467 7 707 20 1150 62 612 57 1330
195 1780 343 66 21 124 39 130 40 5 1 272 -261 592 -581z m-6265 -2558 c9 -19
20 -52 23 -72 7 -38 7 -38 -46 -63 -97 -45 -203 -23 -254 53 -38 55 -33 68 28
86 28 8 68 19 87 25 19 5 60 9 90 8 52 -2 56 -4 72 -37z m5465 -36 c112 -19
113 -19 113 -47 0 -126 -198 -255 -357 -233 -44 6 -117 38 -128 56 -11 18 36
140 69 178 70 79 92 83 303 46z m-6015 -93 c35 -118 136 -218 273 -272 75 -29
224 -32 294 -5 24 9 45 15 47 14 1 -2 10 -32 19 -68 33 -130 103 -241 188
-298 79 -54 131 -67 257 -67 104 0 121 3 172 27 32 15 80 48 108 74 l51 48 27
-18 c155 -101 383 -111 578 -27 l52 22 63 -32 c56 -29 76 -33 162 -37 58 -3
123 1 157 8 57 12 59 12 87 -15 46 -44 99 -74 175 -99 99 -32 162 -39 233 -27
146 25 127 29 154 -33 27 -64 81 -139 131 -183 43 -38 126 -83 151 -83 11 0
19 -4 19 -8 0 -15 -529 -22 -815 -12 -971 34 -1741 192 -2280 468 -183 94
-261 191 -334 412 -33 101 -72 261 -66 270 2 3 21 4 42 2 37 -4 39 -5 55 -61z
m1735 -85 c40 -45 159 -263 150 -273 -12 -11 -86 -23 -152 -23 -82 0 -138 22
-178 69 l-26 32 25 72 c15 40 38 93 52 120 22 41 29 47 58 47 26 0 40 -9 71
-44z m3076 -13 c14 -32 35 -82 46 -111 12 -29 32 -75 46 -102 29 -58 25 -74
-28 -113 -54 -41 -94 -48 -258 -45 -154 3 -154 3 -204 -26 -131 -77 -143 -81
-256 -84 -92 -4 -112 -1 -158 19 l-53 22 6 41 c3 23 8 76 12 118 l6 78 54 -49
c109 -100 238 -132 387 -97 148 35 244 135 302 316 24 76 33 90 54 90 13 0 26
-18 44 -57z m-1870 -266 c14 -34 28 -77 32 -94 6 -29 4 -34 -20 -43 -14 -5
-43 -10 -64 -10 -43 0 -137 26 -146 40 -7 11 107 164 133 179 24 14 36 0 65
-72z m2777 -82 c41 -8 78 -11 81 -9 4 2 10 0 14 -6 3 -5 -7 -29 -24 -53 -25
-37 -50 -54 -158 -109 -411 -211 -1006 -354 -1802 -433 -213 -21 -218 -20
-151 14 64 34 145 116 180 184 20 39 29 47 45 42 212 -61 454 -38 587 57 30
21 43 22 183 23 212 1 304 33 410 141 l61 61 82 -5 c118 -7 204 22 275 92 l52
51 45 -19 c25 -10 79 -24 120 -31z m-1752 -885 c1 -9 -210 -227 -497 -514
-435 -434 -501 -497 -517 -488 -11 6 -237 229 -503 495 -370 371 -482 489
-477 502 5 15 15 16 69 11 206 -21 335 -27 712 -33 423 -6 719 3 1020 32 166
15 189 15 193 -5z"/>
<path d="M5835 7594 c-168 -30 -396 -111 -560 -198 -76 -40 -83 -42 -130 -33
-27 5 -138 9 -245 10 -194 1 -267 -7 -532 -55 -65 -11 -70 -11 -125 15 -94 43
-207 66 -286 58 -5 -1 20 -25 55 -55 35 -29 106 -99 159 -154 81 -86 108 -107
171 -137 181 -86 521 -108 793 -50 111 24 163 54 220 131 63 83 193 207 310
294 89 66 257 170 275 170 5 0 12 5 15 10 8 13 -21 12 -120 -6z"/>
<path d="M7770 5740 c-19 -4 -129 -28 -244 -54 -224 -49 -273 -69 -320 -131
-54 -70 -56 -85 -56 -348 0 -237 1 -245 23 -278 51 -76 108 -92 245 -68 76 13
82 9 82 -63 0 -75 -9 -79 -231 -122 -107 -20 -220 -41 -251 -47 -146 -24 -184
-32 -195 -41 -19 -15 -18 -317 0 -324 32 -12 767 125 852 158 47 19 116 88
141 143 23 48 24 59 24 308 0 291 -3 308 -69 353 -41 28 -95 31 -198 12 -54
-10 -66 -9 -74 3 -11 15 -5 77 9 91 5 5 71 22 148 39 76 17 149 38 162 45 22
15 22 18 20 172 -3 172 -1 167 -68 152z"/>
<path d="M2095 5694 c-17 -9 -42 -32 -55 -52 -25 -36 -25 -36 -25 -291 0 -253
0 -257 24 -296 54 -90 117 -135 216 -156 95 -19 105 -29 105 -100 0 -46 -4
-61 -17 -66 -9 -4 -81 8 -160 26 -113 25 -148 30 -159 20 -11 -9 -14 -44 -14
-160 l0 -148 28 -14 c39 -21 442 -107 497 -107 60 0 117 30 146 77 23 37 24
47 27 269 3 151 0 252 -8 288 -23 110 -119 193 -251 217 -78 14 -91 24 -92 74
-2 58 6 59 153 31 154 -30 186 -32 194 -10 3 9 6 76 6 150 0 165 1 163 -131
188 -52 10 -154 31 -227 47 -147 32 -212 35 -257 13z"/>
<path d="M6820 5558 c-69 -10 -137 -24 -153 -30 l-28 -11 3 -141 3 -141 80 0
c77 0 80 -1 83 -24 5 -33 -4 -38 -76 -50 -35 -6 -70 -15 -78 -22 -20 -16 -19
-128 1 -135 22 -9 308 36 323 50 9 9 13 73 13 259 0 136 -2 251 -6 257 -8 12
-10 12 -165 -12z"/>
<path d="M2906 5554 c-12 -31 -7 -1099 5 -1135 19 -55 70 -116 122 -145 41
-22 83 -31 260 -55 117 -16 236 -29 266 -29 77 0 134 30 169 88 l27 47 3 535
c2 294 1 549 -3 567 -3 17 -12 33 -19 36 -25 10 -307 39 -321 33 -13 -5 -15
-72 -15 -464 0 -334 -3 -461 -12 -470 -13 -13 -95 -5 -115 11 -10 7 -13 113
-13 468 0 403 -2 459 -16 473 -8 9 -21 16 -27 16 -7 0 -70 9 -142 20 -158 24
-161 24 -169 4z"/>
<path d="M6260 5484 c-84 -10 -118 -19 -127 -31 -10 -12 -13 -81 -13 -259 0
-181 -3 -244 -12 -252 -22 -16 -108 -25 -124 -11 -11 9 -14 55 -14 254 0 197
-3 245 -14 254 -16 14 -244 6 -308 -10 l-38 -10 0 -348 c0 -383 1 -390 61
-449 49 -48 85 -56 226 -48 67 3 143 9 167 12 51 7 63 -5 52 -50 -7 -28 -16
-30 -294 -51 -106 -8 -197 -17 -202 -20 -16 -10 -13 -310 4 -324 10 -8 63 -7
207 4 507 38 509 39 576 108 76 77 73 53 71 682 l-3 560 -50 2 c-27 0 -102 -5
-165 -13z"/>
<path d="M3997 5433 c-4 -3 -7 -291 -7 -639 0 -597 1 -634 18 -643 21 -11 523
-36 546 -28 14 5 16 30 16 160 0 106 -4 157 -12 165 -7 7 -41 12 -84 12 -40 0
-84 4 -98 10 l-26 10 0 457 c0 269 -4 464 -10 473 -6 10 -36 17 -97 22 -119 9
-238 9 -246 1z"/>
<path d="M4800 5391 c-7 -13 -10 -225 -10 -635 0 -566 1 -616 17 -632 16 -15
41 -16 280 -12 191 4 267 8 278 18 12 10 15 40 15 159 0 101 -4 151 -12 159
-8 8 -46 12 -104 12 -64 0 -95 4 -103 13 -7 10 -12 154 -13 473 l-3 459 -167
3 c-157 2 -168 1 -178 -17z"/>
<path d="M1053 5090 c-115 -59 -115 -223 0 -281 74 -38 153 -14 205 62 20 28
23 43 20 87 -10 118 -123 184 -225 132z"/>
<path d="M8692 5093 c-52 -25 -85 -76 -90 -136 -3 -46 0 -57 28 -95 51 -71
118 -88 197 -52 117 53 118 219 3 278 -52 26 -93 28 -138 5z"/>
<path d="M7150 4090 c-97 -21 -170 -103 -170 -193 0 -27 5 -57 10 -68 15 -27
63 -49 109 -49 60 0 91 -15 91 -45 0 -37 -39 -58 -97 -53 -27 3 -56 8 -65 12
-13 6 -22 -3 -43 -44 -20 -39 -24 -55 -15 -64 6 -6 44 -12 85 -14 167 -9 274
74 275 214 0 76 -49 113 -150 114 -46 0 -63 12 -58 41 4 33 44 50 98 44 l45
-5 23 47 c15 30 19 50 13 56 -14 14 -98 18 -151 7z"/>
<path d="M2609 4062 c-26 -23 -33 -38 -37 -80 -9 -94 14 -128 130 -189 73 -38
95 -71 66 -100 -20 -19 -85 -3 -128 33 -36 31 -49 28 -75 -21 l-19 -37 24 -20
c48 -38 131 -70 195 -76 110 -8 162 43 153 154 -6 68 -32 98 -134 153 -55 30
-70 43 -72 64 -5 38 37 47 88 18 50 -28 54 -27 80 16 27 46 19 55 -74 89 -93
34 -156 32 -197 -4z"/>
<path d="M3102 3953 c3 -51 6 -53 81 -68 l27 -5 0 -190 c0 -215 -7 -198 90
-203 l45 -2 1 185 0 185 55 0 c52 0 54 1 57 29 8 69 6 70 -155 94 -81 12 -161
22 -176 22 -27 0 -28 -1 -25 -47z"/>
<path d="M6467 3961 c-71 -10 -111 -21 -117 -31 -10 -16 -14 -438 -4 -463 4
-11 17 -13 52 -9 79 8 82 12 82 102 0 44 3 80 8 80 4 0 32 -34 61 -75 30 -41
60 -75 65 -75 33 0 131 21 140 30 6 6 -14 34 -62 84 -40 41 -72 78 -72 82 0 5
14 17 30 26 44 25 70 74 70 134 0 60 -25 99 -76 120 -39 16 -37 16 -177 -5z
m94 -101 c13 -8 19 -21 19 -45 0 -37 -21 -58 -72 -70 l-28 -7 0 59 c0 33 3 63
7 66 10 10 52 8 74 -3z"/>
<path d="M3692 3678 l3 -243 40 -6 c22 -4 86 -10 143 -14 l102 -7 0 50 c0 55
-7 62 -65 62 -18 0 -47 3 -64 6 -28 6 -31 10 -31 46 l0 39 76 -7 75 -7 -3 54
-3 54 -73 9 -73 8 3 37 3 36 78 -4 78 -3 -3 53 -3 54 -115 12 c-63 6 -127 12
-143 12 l-27 1 2 -242z"/>
<path d="M5903 3897 l-113 -10 0 -245 0 -245 108 7 c59 4 123 10 142 14 34 8
35 9 35 57 l0 50 -78 -4 -78 -3 3 38 3 39 73 9 72 9 0 54 0 55 -76 -7 -75 -7
3 38 3 39 75 10 75 10 3 53 3 52 -33 -2 c-18 0 -84 -6 -145 -11z"/>
<path d="M4365 3807 c-31 -69 -90 -211 -137 -330 -37 -92 -34 -99 52 -95 53 3
56 4 73 41 17 36 18 37 75 37 105 0 130 -8 142 -46 7 -19 19 -38 28 -42 23
-11 120 -14 126 -4 4 6 -179 483 -187 488 -1 1 -34 4 -73 8 l-71 6 -28 -63z
m124 -172 c29 -88 29 -87 -26 -79 -27 3 -49 8 -51 9 -2 2 14 49 37 108 6 15
12 27 15 27 2 0 14 -29 25 -65z"/>
<path d="M5380 3860 l-45 -5 -49 -122 c-27 -68 -53 -123 -57 -123 -4 0 -29 54
-55 120 l-48 120 -68 0 c-62 0 -68 -2 -73 -22 -22 -91 -82 -455 -75 -461 4 -4
34 -7 66 -5 l58 3 22 127 c11 71 23 130 25 133 3 2 30 -54 60 -125 70 -167 93
-178 141 -67 104 234 98 231 117 77 19 -155 12 -143 84 -135 34 4 64 9 65 10
4 4 -65 437 -73 466 -5 16 -21 17 -95 9z"/>
<path d="M4890 1259 c-89 -36 -129 -153 -77 -229 51 -76 124 -98 200 -61 72
35 104 104 85 179 -23 90 -125 144 -208 111z"/>
</g>
</svg>
